<svg id="Layer_1" data-name="Layer 1" xmlns="http://www.w3.org/2000/svg" viewBox="0 0 1000 1000"><defs><style>.cls-1{fill:#262626;}</style></defs><path class="cls-1" d="M439.66,76.07C205.6,109.39,42.87,326.15,76.2,560.21S326.28,957,560.34,923.67C734.21,898.92,868.7,773,912.73,613.86A426.53,426.53,0,0,0,923.8,439.53h0c0-.11,0-.21,0-.32l0-.18c0-.21-.06-.41-.1-.62a59.51,59.51,0,0,0-117.73,17.4c0,.17.05.33.08.49h0a307.51,307.51,0,0,1-27,176.6C735.9,723.08,649.93,790.69,543.56,805.84,374.58,829.9,218.09,712.42,194,543.43S287.45,218,456.44,193.9a308.1,308.1,0,0,1,225.5,56.15l80.6-88.3A427.38,427.38,0,0,0,439.66,76.07Z"/><path class="cls-1" d="M847.58,298.72,778.41,112.88a26.91,26.91,0,0,0-45.95-7.76L606.1,257.94a26.91,26.91,0,0,0,16.26,43.68l195.52,33A26.91,26.91,0,0,0,847.58,298.72Z"/></svg>